PathFileType	4	(X/Y/Z)	69_2_80_p0_0-349.trc
DataRate	CameraRate	NumFrames	NumMarkers	Units	OrigDataRate	OrigDataStartFrame	OrigNumFrames
60.0	60.0	6	27	m	60.0	262	350
Frame#	Time	RHip			RKnee			RAnkle			RBigToe			RSmallToe			RHeel			LHip			LKnee			LAnkle			LBigToe			LSmallToe			LHeel			Neck			Head			Nose			RShoulder			RElbow			RWrist			RThumb			RIndex			RPinky			LShoulder			LElbow			LWrist			LThumb			LIndex			LPinky			
		X1	Y1	Z1	X2	Y2	Z2	X3	Y3	Z3	X4	Y4	Z4	X5	Y5	Z5	X6	Y6	Z6	X7	Y7	Z7	X8	Y8	Z8	X9	Y9	Z9	X10	Y10	Z10	X11	Y11	Z11	X12	Y12	Z12	X13	Y13	Z13	X14	Y14	Z14	X15	Y15	Z15	X16	Y16	Z16	X17	Y17	Z17	X18	Y18	Z18	X19	Y19	Z19	X20	Y20	Z20	X21	Y21	Z21	X22	Y22	Z22	X23	Y23	Z23	X24	Y24	Z24	X25	Y25	Z25	X26	Y26	Z26	X27	Y27	Z27	
262	4.366666666666666	0.2979451862300755	0.563842429392847	0.49879610265631635	0.24860622396775517	0.5957404216851858	0.9352173828205451	0.2200068067470018	0.6330549558808128	1.3398060534479406	0.256026103346674	0.47050775225352287	1.3507010691870656	0.30563738398802476	0.4896223963652526	1.342105198579431	0.17193478995494169	0.7053815397318994	1.4004110754536503	0.12097883433876185	0.48037088871783523	0.495727528349852	0.054042000033957704	0.5293291388644429	0.9102286816243275	0.03291350092176867	0.5786768635770695	1.335018116516139	0.11546232074178626	0.40341508116723834	1.3203599527518672	0.06111951585533658	0.40665272227759697	1.315730567487004	0.035190172715731584	0.5879126195073019	1.3781841318292598	0.23545603625583084	0.49159074300570943	0.0037995820826368827	0.2574746583125664	0.4457836493954855	-0.2457765736914592	0.2667542506315629	0.3655010486778419	-0.12392077066561923	0.3688241823281048	0.5455557299610091	0.07717915066153008	0.3739038360448351	0.6285570845410012	0.3538153328878276	0.43679620730839713	0.5317325632980068	0.5514786931134533	0.4342161689943388	0.4680158700390445	0.6369066109961438	0.44264978250560033	0.46927131174450615	0.6406549887062346	0.44094743148399995	0.526601157078982	0.6582001296121879	0.06549199704998619	0.4883349687877124	0.07073826329010989	0.05377328994828807	0.43683739513513403	0.3141583950023731	0.022130062351578626	0.39413125672095783	0.5309641901485828	0.035600705036937	0.31732404722444474	0.5953434023622435	0.03231685911461067	0.2983824853481523	0.6250622916455171	-0.022621428748862367	0.3773451041631408	0.652047407955283
263	4.383333333333334	0.2973733963449743	0.5637280776202911	0.5023998673915192	0.24972197022915296	0.5835948077483716	0.9345136655131764	0.22014532189902108	0.632618399250834	1.339788791233596	0.25599171085319694	0.47027929695787923	1.3505162024167379	0.30956228449001344	0.49189790885182755	1.342514014363647	0.1735956968182554	0.6895468753878039	1.3924896113692355	0.1300882344727129	0.4679198687105231	0.48728388555061203	0.05407062310993342	0.529191184215539	0.9102584478190172	0.032939290673996875	0.5786509413848201	1.3353111805659024	0.115457122280764	0.4031547934172497	1.3203440489927296	0.061115972628558356	0.4069565906891338	1.3158111841673983	0.035291961322296034	0.587733664209951	1.3780943036787745	0.2345206455649219	0.5040559519444694	0.005023721259073987	0.25721137730043686	0.44673723376448515	-0.24270450755528578	0.26660077120642867	0.36647362823867874	-0.12040566119200664	0.3688360808361332	0.5455737044909891	0.07717933791943596	0.37429792244938304	0.6273352269641311	0.34597321893052235	0.436851163188663	0.5197212504353692	0.5481372735899419	0.4343592004823187	0.4675605474527953	0.6366291764178436	0.44278181396385125	0.46883547320691765	0.6403794338005411	0.4408387767845495	0.5143963274744479	0.6543429333876486	0.0654778657469976	0.4883595524377669	0.07073825672047283	0.053197954630377145	0.4376663576314613	0.3217296008909221	0.024129769958801273	0.38072894758893394	0.5273682987269793	0.044664772563255184	0.3082449993029538	0.5996219689103971	0.03389517246833624	0.29729503179005634	0.6251104155773074	-0.022710042493754058	0.35994314765796415	0.6467850092970836
264	4.4	0.2977534815691917	0.5639528566461294	0.49887612085617355	0.2485337255509727	0.5954624177915782	0.9350530345953654	0.22015668880608436	0.6327196515201924	1.3398374538222977	0.24772842998963296	0.4811704083478747	1.3628055498206868	0.30966212101626145	0.4918855857210242	1.342605984670809	0.17351361472955007	0.6897688105935057	1.3926294662243475	0.12129511528311018	0.4779994320171404	0.49441666108717075	0.05369816660569375	0.528012738768287	0.9182459790528019	0.03283205402965958	0.5786610738857603	1.3353069271255962	0.11492220075618027	0.41581262813965253	1.3364020613206695	0.058909803000864666	0.4196689063121343	1.3234082762453223	0.035047647123854206	0.588134089834099	1.3783606974058293	0.23457459417346543	0.5040055429918915	0.005020658153037213	0.2575846025213537	0.4457002153454013	-0.2459822314213785	0.2744731793370192	0.3553380260565078	-0.12437917087122176	0.36882621469616556	0.5460549452073484	0.07715052468362298	0.37440699147252565	0.6273210790320844	0.3458357714024859	0.43715723461027217	0.5076016225474034	0.5445233532067666	0.4343307097013909	0.4686219785252081	0.6401363807155138	0.4424840001336213	0.4578917491406927	0.6369258626392682	0.4407878286862258	0.5141820815799187	0.6541155632278668	0.06545595974823686	0.4882648048572814	0.0705596004578681	0.0536593547015012	0.4368781331976526	0.3173448859253031	0.030161875342281767	0.3669335263478827	0.518678501585742	0.04452919348582332	0.30737696952300714	0.59156265105917	0.03334165614255508	0.29660978991472065	0.6278074767672712	-0.010741822679316724	0.34672139019024123	0.6381699607309238
265	4.416666666666667	0.2983501474975599	0.5628757307663325	0.5028075986711364	0.24855309423239155	0.5954812906238283	0.9351786856395509	0.22970908964442033	0.619190105229168	1.3312798676151478	0.246931257287523	0.4827315520286202	1.3590553084560402	0.30959124720282616	0.4920303551908375	1.342527331849805	0.1736627407517954	0.6894049346772166	1.3923875140462427	0.1214372232613638	0.4778816738197983	0.49435189797463785	0.05364661056645405	0.5279274975136358	0.9183453538259693	0.03288510309705592	0.5786806476178425	1.3352994285720836	0.11401408915421742	0.41572867475531644	1.3275414713046656	0.0588380181791685	0.4200035726002063	1.323330402251545	0.03526897369263635	0.5879930058325387	1.3780137304967863	0.23452172513874822	0.5041523953554261	0.005099866326946488	0.25745251152622683	0.4460066699269273	-0.24922484330458367	0.2666247568609473	0.36571505422852935	-0.11710113609641998	0.36876015431295517	0.5464975974340492	0.07706977578719186	0.37446617191457904	0.6273225763114106	0.3457248198598943	0.4372108639311741	0.5075012785721597	0.5444878507011984	0.43871602596772924	0.4539028916190871	0.6353042400016756	0.44270305702500606	0.45731152159878447	0.6370092427426005	0.4374644275581239	0.5104171822877639	0.6532702505591744	0.06577030466411832	0.48709400263085795	0.0667332312965457	0.05419792740710376	0.43708315007711945	0.31395167262314355	0.03034958782088164	0.3666605173196712	0.5185430723263017	0.04541363447106238	0.29473081048740885	0.5920109902736862	0.03510456479721406	0.2848012491148795	0.6241477484959671	-0.011534084830746636	0.34614350336597366	0.6408635655439449
266	4.433333333333334	0.29839601557369827	0.5627680470508343	0.5027450445345224	0.24856202946328326	0.5952375801626503	0.9349975155419245	0.22975455918381113	0.619295827372545	1.3313496778166862	0.24697640293972964	0.4826348990226179	1.3591185351883295	0.309666309575648	0.4917430879856028	1.342556951209707	0.17224995217303415	0.7045092319337763	1.400360673880091	0.12137643272093958	0.4779114002016853	0.4943497348509893	0.05366882065294836	0.5278969850620883	0.9181073172610984	0.03286355381739921	0.5787101992566624	1.3351806923993832	0.11400197543914345	0.41738089918163046	1.332432234195362	0.05878840108180779	0.4200490524564814	1.3233023523843706	0.035287487104280056	0.588076339866568	1.377941715119108	0.2345227507007872	0.5042240981670988	0.005095080837161736	0.2575757896582924	0.44591873013528605	-0.2459823529493974	0.27417535969335644	0.3562752711789252	-0.11793130896292683	0.3690989053534439	0.5461942875201042	0.0805377142932739	0.3744704208060453	0.6271419431910159	0.3456662532468594	0.4371293205781317	0.5074162029932094	0.5443974576252683	0.43867205289415373	0.454182775032995	0.6354819136489078	0.4426825313733498	0.45748175358591553	0.6370227150816546	0.43726351972759037	0.5106096800782575	0.653358438325913	0.06576810889005708	0.4871526622635326	0.06669103115431581	0.053798966096668815	0.43677369483036166	0.3172374940429392	0.030404702036214617	0.36612545469035734	0.5184560693532543	0.04643341830172047	0.29441404307048324	0.5879026627037846	0.035306700911623655	0.2844534072642345	0.6240637664877229	-0.0010114665135085217	0.3361299077964732	0.6340668473729867
267	4.45	0.3070029991289787	0.5488423599056294	0.4946322940366882	0.24959675386357252	0.5815539757270887	0.9294238671577757	0.22971568387837013	0.6192859830246696	1.3314211659319286	0.2457301131233221	0.4828581030258099	1.363461532522659	0.30959113140142863	0.4918374125969075	1.3426288858866566	0.1721001208571597	0.7049102831128148	1.4004571757430009	0.12693384891238113	0.46463989746182605	0.4903416236326535	0.04997320703933348	0.5250216080192698	0.9176141307663895	0.03280555487021091	0.57865763887286	1.3351118526397205	0.11526304847259296	0.40140605390363393	1.3288486668576633	0.05879350274271125	0.41978869212873476	1.3233570052933958	0.03527750490079744	0.588035778879049	1.3780466150414097	0.2345315741185841	0.5043134215319464	0.005068145964626307	0.2571153208159249	0.456938829499338	-0.245918291244093	0.27445408761066886	0.3554111642387786	-0.12147567439253698	0.3686844368259392	0.5467240271187586	0.07707316892021733	0.3749083602698935	0.6265455851807967	0.34974642164593295	0.4371803307791636	0.5070651906727285	0.544225523840141	0.43109456953091535	0.4651882013002434	0.6397262347073036	0.44252805392256866	0.4573319178489227	0.6370839761941512	0.43730177343044385	0.510118078417989	0.6530676562525328	0.066105466224943	0.48746076266655275	0.06319564237336692	0.05578588437062878	0.4243682067400185	0.3147037073411774	0.030545147348833714	0.36687277234547233	0.5228716132786543	0.04741244038604488	0.29353918018297276	0.5910632660365107	0.03653496630760367	0.284464307563197	0.6207997684364699	0.008556121584312942	0.3260853667808021	0.6301229113558972
